<svg xmlns="http://www.w3.org/2000/svg" viewBox="0 0 200 130">
  <defs>
    <style>
      .a {
        font-size: 40px;
        font-family: FrutigerLTCom-Roman, Frutiger LT Com;
      }

      .a, .d, .e {
        fill: #1d1d1b;
      }

      .b {
        letter-spacing: -0.04em;
      }

      .c {
        letter-spacing: -0.02001em;
      }

      .e, .f, .g {
        fill-rule: evenodd;
      }

      .f {
        fill: #f08223;
      }

      .g, .h {
        fill: #fff;
      }

      .i {
        fill: #009879;
      }
    </style>
  </defs>
  <g>
    <g>
      <text class="a" transform="translate(16.63184 52.50096)">F<tspan class="b" x="20" y="0">O</tspan><tspan x="49.52002" y="0">X</tspan><tspan class="c" x="76.19971" y="0">E</tspan><tspan x="97.63965" y="0">S</tspan></text>
      <g>
        <path class="d" d="M70.38581,103.06645c5.21474-5.01326,7.2076-7.245,13.17529-10.24806a35.77531,35.77531,0,0,1,14.00876-3.733,161.09514,161.09514,0,0,1,25.58639.65882s-17.45058-2.21251-19.01015-2.27372c-8.44231-.33141-16.17086-.14918-24.82723,6.45171A44.153,44.153,0,0,0,70.38581,103.06645Z"/>
        <path class="e" d="M169.05776,33.54314c.1379.14829.26829.305.40471.45508.15178.167.30068.337.4502.50631,8.76433,9.14339,14.83485,21.76622,9.61435,37.52519-2.06252,6.22605-5.82432,14.60738-21.08973,18.62349-11.79916,3.10421-16.96124,1.58739-29.87138.06418,0,0,17.94744,4.77039,30.18212,1.55158,15.26541-4.01611,20.14647-12.70582,22.209-18.93188C186.622,56.23627,179.00011,42.81745,169.05776,33.54314Z"/>
        <path class="e" d="M142.89928,16.56569c13.99434,6.48645,39.36521,24.49255,30.23592,52.05088-2.06252,6.22606-6.94361,14.91572-22.209,18.93189-26.5391,6.98216-57.23982-18.245-86.02481,16.55367A187.0295,187.0295,0,0,1,75.19705,84.47548C82.56762,72.94,94.06793,71.34929,110.78627,70.0808c28.4261-2.15681,48.23312-9.74689,32.11273-53.51511Z"/>
        <path class="f" d="M141.46928,13.70569c14.25963,7.48553,39.36521,24.49255,30.23592,52.05088-2.06252,6.22606-6.94361,14.91572-22.209,18.93189-26.5391,6.98216-57.23982-18.245-86.02481,16.55367A187.0295,187.0295,0,0,1,73.76705,81.61548C81.13762,70.08,92.63793,68.48929,109.35627,67.2208c28.4261-2.15681,48.23312-9.74689,32.11273-53.51511Z"/>
        <path class="g" d="M149.06811,40.27267l.39169-8.53065,3.54158,6.70269L150.47815,26.606l6.25932,10.37526-2.31234-9.24936,5.3549,6.32851-1.58213-5.76906,6.56369,4.5335c-9.97568-11.98348-15.31536-13.39827-22.52621-18.3272A124.05031,124.05031,0,0,1,149.06811,40.27267Z"/>
      </g>
    </g>
    <g>
      <rect class="h" x="96.2766" y="98.14374" width="11.46815" height="11.46819"/>
      <g>
        <path class="i" d="M96.2766,109.60606a100.50391,100.50391,0,0,0,11.46815-6.95887v-1.109a99.72192,99.72192,0,0,1-11.46815,6.3434Z"/>
        <path class="i" d="M96.2766,106.29634a87.74782,87.74782,0,0,0,11.46815-5.61092v-.5471a50.795,50.795,0,0,1-11.46815,3.91415Z"/>
        <path class="i" d="M107.74475,109.61181v-5.57646c-2.61083,2.19056-5.19612,4.08614-7.36839,5.57646Z"/>
        <path class="i" d="M98.91,109.61181a80.2552,80.2552,0,0,0,7.05881-4.666q.87315-.65073,1.77591-1.342V102.913a97.73992,97.73992,0,0,1-10.39907,6.69882Z"/>
        <path class="i" d="M96.2766,103.24187a45.42984,45.42984,0,0,0,11.46815-3.53964v-.6215A35.11844,35.11844,0,0,1,96.2766,101.923Z"/>
        <path class="i" d="M96.2766,98.14374v3.19482q.37559-.02312.7671-.05332a32.86079,32.86079,0,0,0,10.701-2.47064v-.67086Z"/>
      </g>
      <path class="d" d="M163.35834,109.61076h1.46718V107.541c0-.81044,0-2.30015,1.19259-2.30015a1.48921,1.48921,0,0,1,.65849.12031v-1.4783a1.61313,1.61313,0,0,0-.45-.0439,1.72768,1.72768,0,0,0-1.54336,1.41216h-.02278V103.9707h-1.30211Zm-1.468-1.51084a3.80678,3.80678,0,0,1-1.87357.56948,1.47575,1.47575,0,0,1-1.60927-1.42523h3.89805c0-1.97107-.59063-3.4052-2.68292-3.4052-1.75094,0-2.61616,1.34682-2.61616,2.97887a2.67954,2.67954,0,0,0,2.94585,2.92464,3.86918,3.86918,0,0,0,1.938-.44939Zm-3.48284-1.86212a1.27848,1.27848,0,0,1,1.303-1.32574c.82241,0,1.15153.614,1.19429,1.32574Zm-4.68676,3.373h1.46718v-4.56725h1.28075V103.9707h-1.28075v-.70124c0-.438.15346-.86518.64707-.86518a1.1319,1.1319,0,0,1,.63368.19792l.12089-1.216a5.17461,5.17461,0,0,0-1.0728-.1206,1.72407,1.72407,0,0,0-1.796,1.9169v.78818H152.6365v1.07281h1.08421Zm-5.83716-2.958a1.438,1.438,0,1,1,2.83658,0c0,.94306-.29486,1.95056-1.42357,1.95056-1.11816,0-1.413-1.01891-1.413-1.95056m-1.5345.17623a2.952,2.952,0,0,0,5.90359,0,2.952,2.952,0,1,0-5.90359,0m-6.11008,2.7818H141.707v-2.761c0-.72119.23012-1.8724,1.29265-1.8724.94192,0,.95252.93165.95252,1.62144v3.012h1.46661v-3.55947c0-1.27011-.58032-2.21232-1.91577-2.21232a2.095,2.095,0,0,0-1.77263.89827H141.707v-3.3399H140.239Zm-6.69069,0h1.46751v-2.761c0-.72119.2304-1.8724,1.29184-1.8724.941,0,.95244.93165.95244,1.62144v3.012H138.729v-3.55947c0-1.27011-.58089-2.21232-1.91719-2.21232a2.10434,2.10434,0,0,0-1.85018.89827h-.02339v-.76654h-1.38995Zm-1.51139-5.64006h-1.46876v2.75987c0,.72232-.2296,1.87272-1.292,1.87272-.94237,0-.95305-.93169-.95305-1.62181V103.9707H126.8559v3.55946c0,1.27016.58048,2.21232,1.9165,2.21232a2.35219,2.35219,0,0,0,1.85075-.89883h.02225v.76711h1.39149Zm-10.01121,4.00805c0-.86521.97469-.975,1.63216-.975h.63538a1.87125,1.87125,0,0,1-.307,1.16152,1.2491,1.2491,0,0,1-1.02935.50414c-.5257,0-.9312-.209-.9312-.69065m-.744-2.45271a2.94161,2.94161,0,0,1,1.741-.614c.86477,0,1.27059.30654,1.27059,1.21651h-.81031a4.45039,4.45039,0,0,0-1.89469.32823,1.65656,1.65656,0,0,0-.96345,1.61007,1.79891,1.79891,0,0,0,1.971,1.67561,2.015,2.015,0,0,0,1.741-.97441h.02225a7.06045,7.06045,0,0,0,.06542.84269h1.2924c-.03322-.43888-.05446-.83326-.066-1.25956-.01068-.41606-.02164-.84385-.02164-1.41305V106.215c0-1.66424-.712-2.376-2.43095-2.376a5.05678,5.05678,0,0,0-1.96055.42715Zm-4.41371,4.08472h1.46774V107.541c0-.81044,0-2.30015,1.19317-2.30015a1.48535,1.48535,0,0,1,.65759.12031v-1.4783a1.59959,1.59959,0,0,0-.44928-.0439,1.72849,1.72849,0,0,0-1.54393,1.41216h-.022V103.9707H116.868Zm-5.30034,0h1.53309v-3.35127h2.58489v-1.20514h-2.58489v-1.88357h2.71609v-1.20424h-4.24918Z"/>
      <g>
        <path class="d" d="M154.59811,113.05293h.736v3.67121h-.736Z"/>
        <path class="d" d="M155.7498,113.05293h.77318l.68389,2.93472h.01027l.62583-2.93472h.99958l.64675,2.93472H159.5l.68862-2.93472h.71552l-.95729,3.67121h-.94666l-.66257-2.93477H158.327l-.65229,2.93477h-.95179Z"/>
        <path class="d" d="M161.38257,113.05293h2.16709v.57842H162.119v.90478h1.30972v.57838H162.119v1.03081h1.44089v.57882h-2.17733Z"/>
        <path class="d" d="M165.53218,113.56856a.8559.8559,0,0,0-.18922.02091.554.554,0,0,0-.18925.07861.41605.41605,0,0,0-.14225.15807.49727.49727,0,0,0-.05765.25245.27434.27434,0,0,0,.07347.1944.78447.78447,0,0,0,.18412.14221,2.32533,2.32533,0,0,0,.26313.11578q.13631.05748.28919.12089a2.25844,2.25844,0,0,1,.29432.1367,1.04878,1.04878,0,0,1,.25764.205.98075.98075,0,0,1,.18408.27895,1.15,1.15,0,0,1,.06323.40494.96239.96239,0,0,1-.405.85183,1.74148,1.74148,0,0,1-.97311.25759,2.30859,2.30859,0,0,1-.47845-.04188q-.19971-.03671-.46263-.1l.06834-.66256a1.70015,1.70015,0,0,0,.83086.226.89174.89174,0,0,0,.43658-.11575.39218.39218,0,0,0,.21572-.35756.39847.39847,0,0,0-.0632-.226.62778.62778,0,0,0-.18412-.158,4.86552,4.86552,0,0,0-.55232-.24181,2.065,2.065,0,0,1-.28923-.14735,1.38972,1.38972,0,0,1-.26313-.18925.99223.99223,0,0,1-.18408-.27892.92688.92688,0,0,1-.07351-.38365.99428.99428,0,0,1,.405-.87315,1.571,1.571,0,0,1,.87829-.24731,2.82614,2.82614,0,0,1,.87828.13156l-.06837.60488A1.91941,1.91941,0,0,0,165.53218,113.56856Z"/>
      </g>
    </g>
  </g>
</svg>
