<?xml version="1.0" encoding="utf-8"?>
<!-- Generator: Adobe Illustrator 26.5.0, SVG Export Plug-In . SVG Version: 6.00 Build 0)  -->
<svg version="1.1" id="Ebene_1" xmlns="http://www.w3.org/2000/svg" xmlns:xlink="http://www.w3.org/1999/xlink" x="0px" y="0px"
	 viewBox="0 0 200 130" style="enable-background:new 0 0 200 130;" xml:space="preserve">
<style type="text/css">
	.st0{fill:#FFFFFF;}
	.st1{fill:#1D1D1B;}
	.st2{fill-rule:evenodd;clip-rule:evenodd;fill:#1D1D1B;}
	.st3{fill-rule:evenodd;clip-rule:evenodd;fill:#F08223;}
	.st4{fill-rule:evenodd;clip-rule:evenodd;fill:#FFFFFF;}
	.st5{enable-background:new    ;}
	.st6{fill:#009879;}
</style>
<rect id="BGD" y="-0.13" class="st0" width="200.1" height="130"/>
<g>
	<g>
		<g>
			<path class="st1" d="M70.39,103.07c5.21-5.01,7.21-7.25,13.18-10.25c4.37-2.19,9.13-3.46,14.01-3.73
				c8.53-0.46,17.09-0.24,25.59,0.66c0,0-17.45-2.21-19.01-2.27c-8.44-0.33-16.17-0.15-24.83,6.45
				C75.91,96.52,72.9,99.6,70.39,103.07z"/>
			<path class="st2" d="M169.06,33.54c0.14,0.15,0.27,0.31,0.4,0.46c0.15,0.17,0.3,0.34,0.45,0.51c8.76,9.14,14.83,21.77,9.61,37.53
				c-2.06,6.23-5.82,14.61-21.09,18.62c-11.8,3.1-16.96,1.59-29.87,0.06c0,0,17.95,4.77,30.18,1.55
				c15.27-4.02,20.15-12.71,22.21-18.93C186.62,56.24,179,42.82,169.06,33.54z"/>
			<path class="st2" d="M142.9,16.57c13.99,6.49,39.37,24.49,30.24,52.05c-2.06,6.23-6.94,14.92-22.21,18.93
				C124.39,94.53,93.69,69.3,64.9,104.1c3.04-6.74,6.48-13.29,10.3-19.63c7.37-11.54,18.87-13.13,35.59-14.39
				C139.21,67.92,159.02,60.33,142.9,16.57L142.9,16.57z"/>
			<path class="st3" d="M141.47,13.71c14.26,7.49,39.37,24.49,30.24,52.05c-2.06,6.23-6.94,14.92-22.21,18.93
				c-26.54,6.98-57.24-18.25-86.02,16.55c3.04-6.74,6.48-13.29,10.3-19.63c7.37-11.54,18.87-13.13,35.59-14.39
				C137.78,65.06,157.59,57.47,141.47,13.71L141.47,13.71z"/>
			<path class="st4" d="M149.07,40.27l0.39-8.53l3.54,6.7l-2.52-11.84l6.26,10.38l-2.31-9.25l5.35,6.33l-1.58-5.77l6.56,4.53
				c-9.98-11.98-15.32-13.4-22.53-18.33C145.43,22.82,147.72,31.46,149.07,40.27z"/>
		</g>
		<g class="st5">
			<path class="st1" d="M19.95,24.58h14.84v3.52H23.95v8.16h10.36v3.52H23.95V52.5h-4V24.58z"/>
		</g>
		<g class="st5">
			<path class="st1" d="M38.75,38.54c0-2.08,0.3-4,0.9-5.76c0.6-1.76,1.48-3.28,2.64-4.56c1.16-1.28,2.57-2.29,4.22-3.02
				c1.65-0.73,3.55-1.1,5.68-1.1c2.11,0,3.99,0.37,5.66,1.1c1.67,0.73,3.08,1.74,4.24,3.02c1.16,1.28,2.04,2.8,2.64,4.56
				c0.6,1.76,0.9,3.68,0.9,5.76c0,2.13-0.3,4.08-0.9,5.84s-1.47,3.28-2.62,4.56c-1.15,1.28-2.55,2.27-4.22,2.98s-3.57,1.06-5.7,1.06
				c-2.13,0-4.03-0.35-5.7-1.06s-3.07-1.7-4.22-2.98c-1.15-1.28-2.02-2.8-2.62-4.56S38.75,40.67,38.75,38.54z M42.99,38.54
				c0,1.39,0.18,2.73,0.54,4.04s0.91,2.47,1.66,3.5c0.75,1.03,1.7,1.85,2.86,2.46s2.54,0.92,4.14,0.92s2.98-0.31,4.14-0.92
				c1.16-0.61,2.11-1.43,2.86-2.46c0.75-1.03,1.3-2.19,1.66-3.5c0.36-1.31,0.54-2.65,0.54-4.04c0-1.41-0.19-2.78-0.58-4.1
				c-0.39-1.32-0.96-2.49-1.72-3.5c-0.76-1.01-1.71-1.82-2.86-2.42c-1.15-0.6-2.49-0.9-4.04-0.9c-1.55,0-2.89,0.3-4.04,0.9
				c-1.15,0.6-2.1,1.41-2.86,2.42c-0.76,1.01-1.33,2.18-1.72,3.5C43.19,35.76,42.99,37.13,42.99,38.54z"/>
		</g>
		<g class="st5">
			<path class="st1" d="M76.75,37.98l-9.36-13.4h4.8l7.44,10.72l7.4-10.72h4.56l-9.4,13.32l10.32,14.6h-5.04l-8.24-11.84L71.27,52.5
				h-4.8L76.75,37.98z"/>
		</g>
		<g class="st5">
			<path class="st1" d="M96.59,24.58h15.64v3.52h-11.64v8.16h10.6v3.52h-10.6v9.2h11.64v3.52H96.59V24.58z"/>
		</g>
		<g class="st5">
			<path class="st1" d="M130.51,28.78c-0.51-0.19-0.97-0.35-1.38-0.5c-0.41-0.15-0.82-0.27-1.22-0.38c-0.4-0.11-0.81-0.18-1.24-0.22
				c-0.43-0.04-0.89-0.06-1.4-0.06c-0.56,0-1.13,0.06-1.7,0.18s-1.1,0.32-1.58,0.6c-0.48,0.28-0.87,0.66-1.16,1.14
				c-0.29,0.48-0.44,1.08-0.44,1.8c0,0.91,0.29,1.65,0.88,2.22c0.59,0.57,1.33,1.1,2.22,1.58c0.89,0.48,1.86,0.95,2.9,1.42
				c1.04,0.47,2.01,1.05,2.9,1.74c0.89,0.69,1.63,1.55,2.22,2.56c0.59,1.01,0.88,2.28,0.88,3.8c0,1.49-0.27,2.77-0.8,3.82
				c-0.53,1.05-1.27,1.91-2.2,2.58c-0.93,0.67-2.02,1.15-3.26,1.46c-1.24,0.31-2.55,0.46-3.94,0.46c-0.99,0-1.95-0.12-2.9-0.36
				c-0.95-0.24-1.89-0.51-2.82-0.8l0.4-3.72c0.35,0.13,0.75,0.28,1.2,0.44c0.45,0.16,0.93,0.31,1.44,0.44
				c0.51,0.13,1.03,0.25,1.58,0.34c0.55,0.09,1.07,0.14,1.58,0.14c0.56,0,1.17-0.09,1.82-0.26c0.65-0.17,1.25-0.44,1.78-0.8
				c0.53-0.36,0.98-0.83,1.34-1.4c0.36-0.57,0.54-1.27,0.54-2.1c0-1.04-0.29-1.89-0.88-2.54c-0.59-0.65-1.33-1.23-2.22-1.72
				c-0.89-0.49-1.86-0.97-2.9-1.42c-1.04-0.45-2.01-0.99-2.9-1.62c-0.89-0.63-1.63-1.41-2.22-2.34c-0.59-0.93-0.88-2.12-0.88-3.56
				c0-1.23,0.23-2.31,0.7-3.26s1.1-1.74,1.9-2.38c0.8-0.64,1.75-1.13,2.84-1.46c1.09-0.33,2.27-0.5,3.52-0.5
				c0.93,0,1.92,0.08,2.96,0.24s2.04,0.41,3,0.76L130.51,28.78z"/>
		</g>
	</g>
	<g>
		<rect x="96.28" y="98.14" class="st0" width="11.47" height="11.47"/>
		<g>
			<path class="st6" d="M96.28,109.61c3.97-2.06,7.8-4.39,11.47-6.96v-1.11c-3.68,2.36-7.51,4.48-11.47,6.34V109.61z"/>
			<path class="st6" d="M96.28,106.3c3.95-1.59,7.79-3.46,11.47-5.61v-0.55c-3.65,1.76-7.5,3.07-11.47,3.91V106.3z"/>
			<path class="st6" d="M107.74,109.61v-5.58c-2.61,2.19-5.2,4.09-7.37,5.58H107.74z"/>
			<path class="st6" d="M98.91,109.61c2.43-1.43,4.79-2.99,7.06-4.67c0.58-0.43,1.17-0.88,1.78-1.34v-0.69
				c-3.32,2.45-6.79,4.69-10.4,6.7L98.91,109.61z"/>
			<path class="st6" d="M96.28,103.24c3.96-0.67,7.82-1.86,11.47-3.54v-0.62c-3.63,1.59-7.51,2.55-11.47,2.84V103.24z"/>
			<path class="st6" d="M96.28,98.14v3.19c0.25-0.02,0.51-0.03,0.77-0.05c3.68-0.22,7.3-1.05,10.7-2.47v-0.67L96.28,98.14z"/>
		</g>
		<path class="st1" d="M163.36,109.61h1.47v-2.07c0-0.81,0-2.3,1.19-2.3c0.23-0.01,0.45,0.03,0.66,0.12v-1.48
			c-0.15-0.04-0.3-0.05-0.45-0.04c-0.77,0.07-1.4,0.65-1.54,1.41h-0.02v-1.28h-1.3L163.36,109.61z M161.89,108.1
			c-0.56,0.35-1.21,0.55-1.87,0.57c-0.81,0.07-1.53-0.52-1.6-1.34c0-0.03,0-0.06-0.01-0.09h3.9c0-1.97-0.59-3.41-2.68-3.41
			c-1.75,0-2.62,1.35-2.62,2.98c-0.14,1.47,0.93,2.78,2.41,2.93c0.18,0.02,0.36,0.02,0.54,0c0.67,0.02,1.34-0.13,1.94-0.45
			L161.89,108.1z M158.41,106.24c-0.03-0.71,0.52-1.3,1.23-1.33c0.02,0,0.05,0,0.07,0c0.82,0,1.15,0.61,1.19,1.33H158.41z
			 M153.72,109.61h1.47v-4.57h1.28v-1.07h-1.28v-0.7c0-0.44,0.15-0.87,0.65-0.87c0.23,0,0.45,0.07,0.63,0.2l0.12-1.22
			c-0.35-0.08-0.71-0.12-1.07-0.12c-0.95-0.05-1.76,0.69-1.81,1.64c0,0.09,0,0.19,0.01,0.28v0.79h-1.08v1.07h1.08L153.72,109.61z
			 M147.88,106.65c-0.13-0.78,0.4-1.52,1.18-1.66s1.52,0.4,1.66,1.18c0.03,0.16,0.03,0.32,0,0.47c0,0.94-0.29,1.95-1.42,1.95
			C148.18,108.6,147.88,107.58,147.88,106.65 M146.35,106.83c0.02,1.63,1.36,2.94,2.99,2.92c1.6-0.02,2.9-1.31,2.92-2.92
			c0.02-1.63-1.29-2.97-2.92-2.99s-2.97,1.29-2.99,2.92C146.35,106.78,146.35,106.81,146.35,106.83 M140.24,109.61h1.47v-2.76
			c0-0.72,0.23-1.87,1.29-1.87c0.94,0,0.95,0.93,0.95,1.62v3.01h1.47v-3.56c0-1.27-0.58-2.21-1.92-2.21
			c-0.7-0.02-1.37,0.32-1.77,0.9h-0.02v-3.34h-1.47L140.24,109.61z M133.55,109.61h1.47v-2.76c0-0.72,0.23-1.87,1.29-1.87
			c0.94,0,0.95,0.93,0.95,1.62v3.01h1.47v-3.56c0-1.27-0.58-2.21-1.92-2.21c-0.73-0.04-1.43,0.3-1.85,0.9h-0.02v-0.77h-1.39
			L133.55,109.61z M132.04,103.97h-1.47v2.76c0,0.72-0.23,1.87-1.29,1.87c-0.94,0-0.95-0.93-0.95-1.62v-3.01h-1.47v3.56
			c0,1.27,0.58,2.21,1.92,2.21c0.72,0,1.4-0.33,1.85-0.9h0.02v0.77h1.39L132.04,103.97z M122.03,107.98c0-0.87,0.97-0.97,1.63-0.97
			h0.64c0.03,0.41-0.08,0.82-0.31,1.16c-0.24,0.32-0.62,0.51-1.03,0.5C122.43,108.67,122.03,108.46,122.03,107.98 M121.28,105.53
			c0.5-0.39,1.11-0.6,1.74-0.61c0.86,0,1.27,0.31,1.27,1.22h-0.81c-0.65-0.03-1.29,0.08-1.89,0.33c-0.62,0.29-1.01,0.93-0.96,1.61
			c0.06,0.99,0.92,1.74,1.91,1.68c0.02,0,0.04,0,0.06,0c0.71,0.01,1.37-0.36,1.74-0.97h0.02c0,0.28,0.03,0.56,0.07,0.84h1.29
			c-0.03-0.44-0.05-0.83-0.07-1.26c-0.01-0.42-0.02-0.84-0.02-1.41v-0.72c0-1.66-0.71-2.38-2.43-2.38
			c-0.68,0.01-1.34,0.16-1.96,0.43L121.28,105.53z M116.87,109.61h1.47v-2.07c0-0.81,0-2.3,1.19-2.3c0.23-0.01,0.45,0.03,0.66,0.12
			v-1.48c-0.15-0.04-0.3-0.05-0.45-0.04c-0.77,0.07-1.4,0.65-1.54,1.41h-0.02v-1.28h-1.3L116.87,109.61z M111.57,109.61h1.53v-3.35
			h2.58v-1.21h-2.58v-1.88h2.72v-1.2h-4.25V109.61z"/>
		<g>
			<path class="st1" d="M154.6,113.05h0.74v3.67h-0.74V113.05z"/>
			<path class="st1" d="M155.75,113.05h0.77l0.68,2.93h0.01l0.63-2.93h1l0.65,2.93h0.01l0.69-2.93h0.72l-0.96,3.67H159l-0.66-2.93
				h-0.01l-0.65,2.93h-0.95L155.75,113.05z"/>
			<path class="st1" d="M161.38,113.05h2.17v0.58h-1.43v0.9h1.31v0.58h-1.31v1.03h1.44v0.58h-2.18V113.05z"/>
			<path class="st1" d="M165.53,113.57c-0.06,0-0.13,0.01-0.19,0.02c-0.07,0.01-0.13,0.04-0.19,0.08c-0.06,0.04-0.11,0.09-0.14,0.16
				c-0.04,0.08-0.06,0.16-0.06,0.25c0,0.07,0.02,0.14,0.07,0.19c0.05,0.06,0.12,0.1,0.18,0.14c0.09,0.04,0.17,0.08,0.26,0.12
				c0.09,0.04,0.19,0.08,0.29,0.12c0.1,0.04,0.2,0.08,0.29,0.14c0.1,0.05,0.18,0.12,0.26,0.21c0.08,0.08,0.14,0.18,0.18,0.28
				c0.05,0.13,0.07,0.27,0.06,0.4c0.02,0.34-0.13,0.66-0.4,0.85c-0.29,0.18-0.63,0.27-0.97,0.26c-0.16,0-0.32-0.01-0.48-0.04
				c-0.13-0.02-0.29-0.06-0.46-0.1l0.07-0.66c0.25,0.15,0.54,0.22,0.83,0.23c0.15,0,0.3-0.04,0.44-0.12
				c0.13-0.07,0.22-0.21,0.22-0.36c0-0.08-0.02-0.16-0.06-0.23c-0.05-0.06-0.11-0.12-0.18-0.16c-0.18-0.09-0.36-0.17-0.55-0.24
				c-0.1-0.04-0.2-0.09-0.29-0.15c-0.09-0.05-0.18-0.12-0.26-0.19c-0.08-0.08-0.14-0.18-0.18-0.28c-0.05-0.12-0.08-0.25-0.07-0.38
				c-0.02-0.34,0.13-0.67,0.4-0.87c0.26-0.17,0.57-0.25,0.88-0.25c0.3,0,0.59,0.04,0.88,0.13l-0.07,0.6
				C166.04,113.62,165.79,113.57,165.53,113.57z"/>
		</g>
	</g>
</g>
</svg>
