<svg xmlns="http://www.w3.org/2000/svg" viewBox="0 0 200 130">
  <defs>
    <style>
      .a {
        font-size: 40px;
        font-family: FrutigerLTCom-Roman, Frutiger LT Com;
      }

      .a, .d, .e {
        fill: #1d1d1b;
      }

      .b {
        letter-spacing: -0.04em;
      }

      .c {
        letter-spacing: -0.02001em;
      }

      .e, .f, .g {
        fill-rule: evenodd;
      }

      .f {
        fill: #f08223;
      }

      .g, .h {
        fill: #fff;
      }

      .i {
        fill: #009879;
      }
    </style>
  </defs>
  <g>
    <g>
      <text class="a" transform="translate(16.63184 45.50096)">F<tspan class="b" x="20" y="0">O</tspan><tspan x="49.52002" y="0">X</tspan><tspan class="c" x="76.19971" y="0">E</tspan><tspan x="97.63965" y="0">S</tspan></text>
      <g>
        <path class="d" d="M19.98877,49.76758h2.41162v.57226H20.63867V51.666h1.6836v.57128h-1.6836v2.06739h-.6499Z"/>
        <path class="d" d="M23.375,51.22363a2.419,2.419,0,0,1,.50049-.22461,1.95251,1.95251,0,0,1,.5918-.08691,1.31857,1.31857,0,0,1,1.02392.34375,1.49949,1.49949,0,0,1,.30859,1.02734v1.3711c0,.1914.002.335.00635.43261a1.75683,1.75683,0,0,0,.01953.21778h-.57177V53.876h-.01319a1.01013,1.01013,0,0,1-.14306.165,1.15644,1.15644,0,0,1-.21778.16308,1.42863,1.42863,0,0,1-.29248.127,1.26027,1.26027,0,0,1-.37353.05176,1.93742,1.93742,0,0,1-.49073-.05859,1.04,1.04,0,0,1-.38671-.18555.83207.83207,0,0,1-.25049-.32129,1.13272,1.13272,0,0,1-.08789-.46777.85831.85831,0,0,1,.15283-.52051,1.183,1.183,0,0,1,.38037-.335,1.74185,1.74185,0,0,1,.50049-.18164,2.54941,2.54941,0,0,1,.50683-.05566h.3252c.09521,0,.20361.00488.32471.01367a1.00366,1.00366,0,0,0-.17871-.64746.79361.79361,0,0,0-.64014-.21778,1.53942,1.53942,0,0,0-.5166.0918,1.43475,1.43475,0,0,0-.44532.24707Zm1.81348,1.502c-.06494,0-.12989-.00293-.19483-.00684s-.12988-.00684-.19482-.00684c-.08252,0-.18848.00586-.31885.01661a1.53734,1.53734,0,0,0-.37988.081.8931.8931,0,0,0-.31885.19141.45917.45917,0,0,0-.13281.34863.45164.45164,0,0,0,.0581.23047.58348.58348,0,0,0,.14649.16894.62436.62436,0,0,0,.19824.10352.67867.67867,0,0,0,.21435.03613.89722.89722,0,0,0,.689-.25.87394.87394,0,0,0,.23389-.62109Z"/>
        <path class="d" d="M26.833,50.98926h.57178v.51367H27.418a1.07635,1.07635,0,0,1,.36084-.42578.86511.86511,0,0,1,.5039-.165,1.49638,1.49638,0,0,1,.22071.01269c.05615.00879.11719.01954.18213.03223v.5459a.83033.83033,0,0,0-.17237-.04492,1.12191,1.12191,0,0,0-.16552-.01367.76038.76038,0,0,0-.65674.36425,1.73949,1.73949,0,0,0-.24707.98829v1.50781H26.833Z"/>
        <path class="d" d="M29.35547,50.98926h.57178v.48144h.01318a1.10207,1.10207,0,0,1,.42871-.42578,1.32835,1.32835,0,0,1,.624-.13281,1.08039,1.08039,0,0,1,.54932.15234.92455.92455,0,0,1,.39356.49121,1.01647,1.01647,0,0,1,.21435-.2998,1.30031,1.30031,0,0,1,.273-.20117,1.10737,1.10737,0,0,1,.28613-.11035,1.16681,1.16681,0,0,1,.25342-.03223,1.31911,1.31911,0,0,1,.53613.09668.95287.95287,0,0,1,.3545.2666,1.0775,1.0775,0,0,1,.19824.40039,1.9445,1.9445,0,0,1,.06152.50293v2.126h-.61084V52.3291a2.30764,2.30764,0,0,0-.023-.31933.97839.97839,0,0,0-.08789-.29493.60385.60385,0,0,0-.18164-.22168.485.485,0,0,0-.29932-.08789.73621.73621,0,0,0-.39941.1045.81726.81726,0,0,0-.27.27636,1.29874,1.29874,0,0,0-.15283.39258,2.12962,2.12962,0,0,0-.04834.45508v1.6709h-.61133V52.3291a2.306,2.306,0,0,0-.02246-.31933,1.00747,1.00747,0,0,0-.08789-.29493.60512.60512,0,0,0-.18213-.22168.48449.48449,0,0,0-.29883-.08789.73677.73677,0,0,0-.3999.1045.8203.8203,0,0,0-.26953.27636,1.28586,1.28586,0,0,0-.15283.39258,2.09889,2.09889,0,0,0-.04883.45508v1.6709h-.61084Z"/>
        <path class="d" d="M36.772,52.03613a2.87361,2.87361,0,0,1,.146-.93554,2.09788,2.09788,0,0,1,.4292-.74121,2.01632,2.01632,0,0,1,.68554-.49122,2.46459,2.46459,0,0,1,1.84278,0,2.00655,2.00655,0,0,1,.689.49122,2.09788,2.09788,0,0,1,.4292.74121,2.88677,2.88677,0,0,1,.146.93554,2.93738,2.93738,0,0,1-.146.94922,2.12849,2.12849,0,0,1-.42578.74121,1.897,1.897,0,0,1-.686.4834,2.56828,2.56828,0,0,1-1.85254,0,1.89515,1.89515,0,0,1-.68555-.4834,2.121,2.121,0,0,1-.42578-.74121A2.92412,2.92412,0,0,1,36.772,52.03613Zm.689,0a2.47034,2.47034,0,0,0,.0874.65625,1.74209,1.74209,0,0,0,.27.56934,1.33538,1.33538,0,0,0,.46484.39941,1.58858,1.58858,0,0,0,1.34522,0,1.33977,1.33977,0,0,0,.46484-.39941,1.741,1.741,0,0,0,.26953-.56934,2.45079,2.45079,0,0,0,.08789-.65625,2.34845,2.34845,0,0,0-.09423-.666,1.77066,1.77066,0,0,0-.2793-.56934,1.37226,1.37226,0,0,0-.46485-.39258,1.54436,1.54436,0,0,0-1.313,0,1.36762,1.36762,0,0,0-.46485.39258,1.76067,1.76067,0,0,0-.27929.56934A2.3481,2.3481,0,0,0,37.46094,52.03613Z"/>
        <path class="d" d="M42.00391,50.98926h.585V51.458h.01318a1.06026,1.06026,0,0,1,.15918-.18848,1.09164,1.09164,0,0,1,.24365-.17578,1.5922,1.5922,0,0,1,.32178-.12988,1.41217,1.41217,0,0,1,.3999-.05176,1.37229,1.37229,0,0,1,.627.13574,1.31978,1.31978,0,0,1,.44873.36719,1.583,1.583,0,0,1,.2666.53711,2.30751,2.30751,0,0,1,.0874.63672,2.71068,2.71068,0,0,1-.081.666,1.76025,1.76025,0,0,1-.25342.57227,1.31145,1.31145,0,0,1-.44239.40234,1.28331,1.28331,0,0,1-.64648.15332,1.37536,1.37536,0,0,1-.70215-.15332,1.15329,1.15329,0,0,1-.40283-.37988h-.01318v1.82031h-.61084Zm2.50244,1.64453a1.80943,1.80943,0,0,0-.042-.44141,1.24265,1.24265,0,0,0-.15967-.39648.86981.86981,0,0,0-.28565-.2832.79778.79778,0,0,0-.42285-.10743.84944.84944,0,0,0-.43213.10743.95653.95653,0,0,0-.30859.2832,1.22347,1.22347,0,0,0-.18213.39941,1.80722,1.80722,0,0,0-.05859.458,1.73382,1.73382,0,0,0,.05517.42578,1.34693,1.34693,0,0,0,.17237.40039.94563.94563,0,0,0,.30224.2959.84055.84055,0,0,0,.44531.11328.71634.71634,0,0,0,.42237-.123,1.00245,1.00245,0,0,0,.28613-.30957,1.41591,1.41591,0,0,0,.1626-.40625A1.577,1.577,0,0,0,44.50635,52.63379Z"/>
        <path class="d" d="M47.7373,51.4834h-.87792v1.81348a.59323.59323,0,0,0,.15283.44238.49931.49931,0,0,0,.36084.14941.71606.71606,0,0,0,.24365-.03613.83384.83384,0,0,0,.17236-.08106V54.292q-.104.03224-.2373.06153a1.3147,1.3147,0,0,1-.28272.02929,1.12463,1.12463,0,0,1-.74756-.23047.90611.90611,0,0,1-.27294-.73144V51.4834H45.501v-.49414h.74756v-.7666l.61084-.19532v.96192h.87792Z"/>
        <path class="d" d="M49.23193,50.249h-.689v-.68945h.689Zm-.6499.74024h.61084v3.31543H48.582Z"/>
        <path class="d" d="M50.30469,50.98926h.57177v.48144h.01319a1.102,1.102,0,0,1,.42871-.42578,1.32832,1.32832,0,0,1,.624-.13281,1.08039,1.08039,0,0,1,.54932.15234.92449.92449,0,0,1,.39355.49121,1.01667,1.01667,0,0,1,.21436-.2998,1.30031,1.30031,0,0,1,.273-.20117,1.10737,1.10737,0,0,1,.28613-.11035,1.16681,1.16681,0,0,1,.25342-.03223,1.31911,1.31911,0,0,1,.53613.09668.95275.95275,0,0,1,.35449.2666,1.07751,1.07751,0,0,1,.19825.40039,1.9445,1.9445,0,0,1,.06152.50293v2.126h-.61084V52.3291a2.30764,2.30764,0,0,0-.02295-.31933.97868.97868,0,0,0-.08789-.29493.60385.60385,0,0,0-.18164-.22168.485.485,0,0,0-.29932-.08789.73621.73621,0,0,0-.39941.1045.81726.81726,0,0,0-.27.27636,1.29848,1.29848,0,0,0-.15283.39258,2.12962,2.12962,0,0,0-.04834.45508v1.6709h-.61133V52.3291a2.306,2.306,0,0,0-.02246-.31933,1.00747,1.00747,0,0,0-.08789-.29493.60522.60522,0,0,0-.18213-.22168.48453.48453,0,0,0-.29883-.08789.73677.73677,0,0,0-.3999.1045.8203.8203,0,0,0-.26953.27636,1.28586,1.28586,0,0,0-.15283.39258,2.09889,2.09889,0,0,0-.04883.45508v1.6709h-.61084Z"/>
        <path class="d" d="M56.81738,50.249h-.689v-.68945h.689Zm-.6499.74024h.61084v3.31543h-.61084Z"/>
        <path class="d" d="M57.65576,53.77148l1.91113-2.28808H57.74707v-.49414h2.52832v.5332l-1.91113,2.28809h1.98291v.49414H57.65576Z"/>
        <path class="d" d="M61.30225,51.22363a2.41864,2.41864,0,0,1,.50048-.22461,1.95256,1.95256,0,0,1,.5918-.08691,1.31861,1.31861,0,0,1,1.02393.34375,1.49954,1.49954,0,0,1,.30859,1.02734v1.3711c0,.1914.002.335.00635.43261a1.75485,1.75485,0,0,0,.01953.21778h-.57178V53.876H63.168a1.00975,1.00975,0,0,1-.14307.165,1.15636,1.15636,0,0,1-.21777.16308,1.42863,1.42863,0,0,1-.29248.127,1.26029,1.26029,0,0,1-.37354.05176,1.93734,1.93734,0,0,1-.49072-.05859,1.04005,1.04005,0,0,1-.38672-.18555.83216.83216,0,0,1-.25049-.32129,1.13288,1.13288,0,0,1-.08789-.46777.85831.85831,0,0,1,.15283-.52051,1.18318,1.18318,0,0,1,.38038-.335,1.74179,1.74179,0,0,1,.50048-.18164,2.5495,2.5495,0,0,1,.50684-.05566h.3252c.09521,0,.20361.00488.3247.01367a1.00366,1.00366,0,0,0-.17871-.64746.79359.79359,0,0,0-.64013-.21778,1.53947,1.53947,0,0,0-.51661.0918,1.43482,1.43482,0,0,0-.44531.24707Zm1.81347,1.502c-.06494,0-.12988-.00293-.19482-.00684s-.12988-.00684-.19483-.00684c-.08252,0-.18847.00586-.31884.01661a1.53742,1.53742,0,0,0-.37989.081.89305.89305,0,0,0-.31884.19141.45918.45918,0,0,0-.13282.34863.45165.45165,0,0,0,.05811.23047.58345.58345,0,0,0,.14648.16894.62452.62452,0,0,0,.19825.10352.67867.67867,0,0,0,.21435.03613.89725.89725,0,0,0,.689-.25.87393.87393,0,0,0,.23388-.62109Z"/>
        <path class="d" d="M66.522,51.4834H65.644v1.81348a.59323.59323,0,0,0,.15284.44238.49929.49929,0,0,0,.36083.14941.71608.71608,0,0,0,.24366-.03613.83384.83384,0,0,0,.17236-.08106V54.292q-.104.03224-.2373.06153a1.3147,1.3147,0,0,1-.28272.02929,1.12461,1.12461,0,0,1-.74756-.23047.90608.90608,0,0,1-.273-.73144V51.4834h-.74756v-.49414h.74756v-.7666l.61084-.19532v.96192H66.522Z"/>
        <path class="d" d="M68.01709,50.249h-.689v-.68945h.689Zm-.6499.74024H67.978v3.31543h-.61084Z"/>
        <path class="d" d="M68.87451,52.64746a1.9399,1.9399,0,0,1,.12061-.69531,1.57738,1.57738,0,0,1,.34424-.54981,1.6077,1.6077,0,0,1,.5332-.36035,1.90137,1.90137,0,0,1,1.38135,0,1.56692,1.56692,0,0,1,.53271.36035,1.59975,1.59975,0,0,1,.34131.54981,1.95056,1.95056,0,0,1,.12012.69531,1.82759,1.82759,0,0,1-.12354.67285,1.72406,1.72406,0,0,1-.34424.55176,1.58887,1.58887,0,0,1-.5332.374,1.77975,1.77975,0,0,1-1.36816,0,1.634,1.634,0,0,1-.53321-.374,1.69962,1.69962,0,0,1-.34765-.55176A1.83769,1.83769,0,0,1,68.87451,52.64746Zm.65039,0a1.63187,1.63187,0,0,0,.06153.44141,1.27987,1.27987,0,0,0,.18847.40039.99011.99011,0,0,0,.32178.28906.93892.93892,0,0,0,.46777.11035.92772.92772,0,0,0,.46192-.11035.99.99,0,0,0,.32177-.28906,1.29063,1.29063,0,0,0,.18848-.40039,1.63186,1.63186,0,0,0,.06152-.44141,1.51663,1.51663,0,0,0-.07128-.459,1.37207,1.37207,0,0,0-.20166-.39942A.96016.96016,0,0,0,71,51.50977a.966.966,0,0,0-.874,0,1.00353,1.00353,0,0,0-.3252.27929,1.32033,1.32033,0,0,0-.20459.39942A1.50158,1.50158,0,0,0,69.5249,52.64746Z"/>
        <path class="d" d="M73.06738,50.98926h.59131v.52734h.01319a.96558.96558,0,0,1,.43554-.44531,1.35759,1.35759,0,0,1,.6499-.15918,1.12765,1.12765,0,0,1,.94239.377A1.64167,1.64167,0,0,1,75.999,52.335v1.96973H75.3877V52.58887a1.95192,1.95192,0,0,0-.14942-.8711.6156.6156,0,0,0-.55224-.3125.95769.95769,0,0,0-.45215.10157.8618.8618,0,0,0-.31494.27929,1.24017,1.24017,0,0,0-.18213.43164,2.45438,2.45438,0,0,0-.0586.55274v1.53418h-.61084Z"/>
        <path class="d" d="M79.00146,51.22363a2.419,2.419,0,0,1,.50049-.22461,1.95256,1.95256,0,0,1,.5918-.08691,1.31861,1.31861,0,0,1,1.02393.34375,1.49954,1.49954,0,0,1,.30859,1.02734v1.3711c0,.1914.00195.335.00635.43261a1.75485,1.75485,0,0,0,.01953.21778h-.57178V53.876h-.01318a1.00975,1.00975,0,0,1-.14307.165,1.15668,1.15668,0,0,1-.21777.16308,1.42863,1.42863,0,0,1-.29248.127,1.26034,1.26034,0,0,1-.37354.05176,1.93734,1.93734,0,0,1-.49072-.05859,1.04005,1.04005,0,0,1-.38672-.18555.83216.83216,0,0,1-.25049-.32129,1.13288,1.13288,0,0,1-.08789-.46777.85831.85831,0,0,1,.15283-.52051,1.18315,1.18315,0,0,1,.38037-.335,1.74185,1.74185,0,0,1,.50049-.18164,2.5495,2.5495,0,0,1,.50684-.05566h.32519c.09522,0,.20362.00488.32471.01367a1.00366,1.00366,0,0,0-.17871-.64746.7936.7936,0,0,0-.64014-.21778,1.53942,1.53942,0,0,0-.5166.0918,1.43482,1.43482,0,0,0-.44531.24707Zm1.81348,1.502c-.06494,0-.12988-.00293-.19482-.00684s-.12989-.00684-.19483-.00684c-.08252,0-.18847.00586-.31884.01661a1.53742,1.53742,0,0,0-.37989.081.89318.89318,0,0,0-.31885.19141.45921.45921,0,0,0-.13281.34863.45165.45165,0,0,0,.05811.23047.58345.58345,0,0,0,.14648.16894.62447.62447,0,0,0,.19824.10352.67868.67868,0,0,0,.21436.03613.89721.89721,0,0,0,.689-.25.87394.87394,0,0,0,.23389-.62109Z"/>
        <path class="d" d="M82.46,50.98926h.59131v.52734h.01318A.9656.9656,0,0,1,83.5,51.07129a1.35759,1.35759,0,0,1,.6499-.15918,1.12765,1.12765,0,0,1,.94239.377,1.64173,1.64173,0,0,1,.29931,1.0459v1.96973h-.61133V52.58887a1.95194,1.95194,0,0,0-.14941-.8711.61561.61561,0,0,0-.55225-.3125.95769.95769,0,0,0-.45215.10157.8618.8618,0,0,0-.31494.27929,1.24036,1.24036,0,0,0-.18213.43164,2.455,2.455,0,0,0-.05859.55274v1.53418H82.46Z"/>
        <path class="d" d="M88.77783,53.83691h-.01318a1.04485,1.04485,0,0,1-.1626.18848,1.28352,1.28352,0,0,1-.24365.17578,1.55662,1.55662,0,0,1-.32178.12988,1.48535,1.48535,0,0,1-.40283.05176,1.25232,1.25232,0,0,1-1.08887-.55957,1.79488,1.79488,0,0,1-.25342-.57519,2.673,2.673,0,0,1-.08154-.65918,2.28937,2.28937,0,0,1,.08789-.63672,1.583,1.583,0,0,1,.2666-.53711,1.32616,1.32616,0,0,1,.44532-.36719,1.59789,1.59789,0,0,1,1.32568.0166,1.15928,1.15928,0,0,1,.40332.37989h.01269V49.42969h.61133v4.875h-.585Zm-1.91748-1.20312a1.577,1.577,0,0,0,.04541.416,1.41591,1.41591,0,0,0,.1626.40625,1.00078,1.00078,0,0,0,.28564.30957.71789.71789,0,0,0,.42286.123.84.84,0,0,0,.44482-.11328.94084.94084,0,0,0,.30225-.2959,1.33465,1.33465,0,0,0,.17236-.40039,1.70372,1.70372,0,0,0-.00635-.88379,1.33361,1.33361,0,0,0-.18213-.39941.92751.92751,0,0,0-.30566-.2832.84817.84817,0,0,0-.43213-.10743.79721.79721,0,0,0-.42236.10743.88349.88349,0,0,0-.28614.27929,1.20776,1.20776,0,0,0-.15918.39356A1.842,1.842,0,0,0,86.86035,52.63379Z"/>
        <path class="d" d="M94.751,54.168c-.06055.02148-.12354.04492-.18848.06836-.06494.02441-.1377.04687-.21777.06836a2.494,2.494,0,0,1-.2793.05566,2.65954,2.65954,0,0,1-.36084.02246,2.04669,2.04669,0,0,1-.76367-.12988,1.42,1.42,0,0,1-.53321-.36426,1.50188,1.50188,0,0,1-.31542-.56543,2.44377,2.44377,0,0,1-.104-.73437,1.96986,1.96986,0,0,1,.11084-.67578,1.55956,1.55956,0,0,1,.31494-.53028,1.41745,1.41745,0,0,1,.49073-.34765,1.59791,1.59791,0,0,1,.6372-.123,1.511,1.511,0,0,1,.69531.14258,1.18083,1.18083,0,0,1,.44874.39355,1.69248,1.69248,0,0,1,.24365.59473,3.48954,3.48954,0,0,1,.0747.74023H92.63867a1.11385,1.11385,0,0,0,.0874.44922,1.06938,1.06938,0,0,0,.24073.34766,1.11524,1.11524,0,0,0,.35107.22754,1.08444,1.08444,0,0,0,.4126.081,1.3726,1.3726,0,0,0,.30859-.03613,2.67928,2.67928,0,0,0,.29932-.084,1.622,1.622,0,0,0,.24658-.10742,1.27764,1.27764,0,0,0,.166-.10351Zm-.39649-1.83887a1.15656,1.15656,0,0,0-.05517-.3584.91232.91232,0,0,0-.15918-.29492.71547.71547,0,0,0-.26026-.19824.8295.8295,0,0,0-.35107-.07227.81382.81382,0,0,0-.38672.085.85669.85669,0,0,0-.2666.21778.96111.96111,0,0,0-.16211.2959,1.564,1.564,0,0,0-.07471.32519Z"/>
        <path class="d" d="M97.02637,51.94531l-1.521-2.17773h.77979l1.209,1.74219,1.20264-1.74219h.74072l-1.52734,2.165,1.67724,2.37207h-.81933L97.4292,52.38086l-1.29346,1.92383h-.78027Z"/>
        <path class="d" d="M101.9209,51.4834H101.043v1.81348a.59327.59327,0,0,0,.15283.44238.49931.49931,0,0,0,.36084.14941.716.716,0,0,0,.24365-.03613.83394.83394,0,0,0,.17237-.08106V54.292q-.104.03224-.23731.06153a1.31461,1.31461,0,0,1-.28271.02929,1.12461,1.12461,0,0,1-.74756-.23047.90608.90608,0,0,1-.27295-.73144V51.4834h-.74756v-.49414h.74756v-.7666l.61084-.19532v.96192h.87793Z"/>
        <path class="d" d="M105.229,54.168c-.06054.02148-.12353.04492-.18847.06836-.06494.02441-.1377.04687-.21778.06836a2.49377,2.49377,0,0,1-.27929.05566,2.65965,2.65965,0,0,1-.36084.02246,2.04669,2.04669,0,0,1-.76367-.12988,1.42,1.42,0,0,1-.53321-.36426,1.502,1.502,0,0,1-.31543-.56543,2.4441,2.4441,0,0,1-.104-.73437,1.96986,1.96986,0,0,1,.11084-.67578,1.55956,1.55956,0,0,1,.31494-.53028,1.41741,1.41741,0,0,1,.49072-.34765,1.598,1.598,0,0,1,.63721-.123,1.511,1.511,0,0,1,.69531.14258,1.18073,1.18073,0,0,1,.44873.39355,1.69211,1.69211,0,0,1,.24365.59473,3.48887,3.48887,0,0,1,.07471.74023H103.1167a1.11385,1.11385,0,0,0,.0874.44922,1.06935,1.06935,0,0,0,.24072.34766,1.11529,1.11529,0,0,0,.35108.22754,1.0844,1.0844,0,0,0,.4126.081,1.37266,1.37266,0,0,0,.30859-.03613,2.67989,2.67989,0,0,0,.29932-.084,1.622,1.622,0,0,0,.24658-.10742,1.27672,1.27672,0,0,0,.166-.10351Zm-.39648-1.83887a1.15657,1.15657,0,0,0-.05518-.3584.91213.91213,0,0,0-.15918-.29492.71543.71543,0,0,0-.26025-.19824.8295.8295,0,0,0-.35107-.07227.81379.81379,0,0,0-.38672.085.85657.85657,0,0,0-.2666.21778.96111.96111,0,0,0-.16211.2959,1.56333,1.56333,0,0,0-.07471.32519Z"/>
        <path class="d" d="M106.30176,50.98926h.59131v.52734h.01318a.9656.9656,0,0,1,.43555-.44531,1.35756,1.35756,0,0,1,.6499-.15918,1.12763,1.12763,0,0,1,.94238.377,1.64167,1.64167,0,0,1,.29932,1.0459v1.96973h-.61133V52.58887a1.95194,1.95194,0,0,0-.14941-.8711.61562.61562,0,0,0-.55225-.3125.95769.95769,0,0,0-.45215.10157.8618.8618,0,0,0-.31494.27929,1.24017,1.24017,0,0,0-.18213.43164,2.455,2.455,0,0,0-.05859.55274v1.53418h-.61084Z"/>
        <path class="d" d="M112.61963,53.83691h-.01318a1.04565,1.04565,0,0,1-.1626.18848,1.28352,1.28352,0,0,1-.24365.17578,1.55684,1.55684,0,0,1-.32178.12988,1.48535,1.48535,0,0,1-.40283.05176,1.25228,1.25228,0,0,1-1.08887-.55957,1.79467,1.79467,0,0,1-.25342-.57519,2.673,2.673,0,0,1-.08154-.65918,2.289,2.289,0,0,1,.08789-.63672,1.5828,1.5828,0,0,1,.2666-.53711,1.32622,1.32622,0,0,1,.44531-.36719,1.59791,1.59791,0,0,1,1.32569.0166,1.15937,1.15937,0,0,1,.40332.37989h.01269V49.42969h.61133v4.875h-.585Zm-1.91748-1.20312a1.57659,1.57659,0,0,0,.04541.416,1.41591,1.41591,0,0,0,.1626.40625,1.00078,1.00078,0,0,0,.28564.30957.71786.71786,0,0,0,.42285.123.84.84,0,0,0,.44483-.11328.94071.94071,0,0,0,.30224-.2959,1.33467,1.33467,0,0,0,.17237-.40039,1.70372,1.70372,0,0,0-.00635-.88379,1.33386,1.33386,0,0,0-.18213-.39941.92751.92751,0,0,0-.30566-.2832.84817.84817,0,0,0-.43213-.10743.79727.79727,0,0,0-.42237.10743.88355.88355,0,0,0-.28613.27929,1.20776,1.20776,0,0,0-.15918.39356A1.84105,1.84105,0,0,0,110.70215,52.63379Z"/>
        <path class="d" d="M116.78613,54.168c-.06054.02148-.12353.04492-.18847.06836-.065.02441-.1377.04687-.21778.06836a2.49423,2.49423,0,0,1-.27929.05566,2.65965,2.65965,0,0,1-.36084.02246,2.04675,2.04675,0,0,1-.76368-.12988,1.42,1.42,0,0,1-.5332-.36426,1.502,1.502,0,0,1-.31543-.56543,2.4441,2.4441,0,0,1-.104-.73437,1.96986,1.96986,0,0,1,.11084-.67578,1.55956,1.55956,0,0,1,.31494-.53028,1.41741,1.41741,0,0,1,.49072-.34765,1.598,1.598,0,0,1,.63721-.123,1.511,1.511,0,0,1,.69531.14258,1.1808,1.1808,0,0,1,.44873.39355,1.6923,1.6923,0,0,1,.24365.59473,3.48887,3.48887,0,0,1,.07471.74023h-2.36572a1.11385,1.11385,0,0,0,.0874.44922,1.0692,1.0692,0,0,0,.24072.34766,1.11529,1.11529,0,0,0,.35108.22754,1.08439,1.08439,0,0,0,.41259.081,1.37275,1.37275,0,0,0,.3086-.03613,2.68049,2.68049,0,0,0,.29932-.084,1.622,1.622,0,0,0,.24658-.10742,1.27742,1.27742,0,0,0,.166-.10351Zm-.39648-1.83887a1.15657,1.15657,0,0,0-.05518-.3584.91213.91213,0,0,0-.15918-.29492.71543.71543,0,0,0-.26025-.19824.82952.82952,0,0,0-.35108-.07227.81377.81377,0,0,0-.38671.085.85673.85673,0,0,0-.26661.21778.9613.9613,0,0,0-.1621.2959,1.56333,1.56333,0,0,0-.07471.32519Z"/>
        <path class="d" d="M120.20508,53.83691h-.01319a1.04516,1.04516,0,0,1-.16259.18848,1.28328,1.28328,0,0,1-.24366.17578,1.55652,1.55652,0,0,1-.32177.12988,1.48535,1.48535,0,0,1-.40283.05176,1.25228,1.25228,0,0,1-1.08887-.55957,1.79467,1.79467,0,0,1-.25342-.57519,2.673,2.673,0,0,1-.08154-.65918,2.289,2.289,0,0,1,.08789-.63672,1.5828,1.5828,0,0,1,.2666-.53711,1.32622,1.32622,0,0,1,.44531-.36719,1.59791,1.59791,0,0,1,1.32569.0166,1.15937,1.15937,0,0,1,.40332.37989h.01269V49.42969H120.79v4.875h-.585Zm-1.91748-1.20312a1.57659,1.57659,0,0,0,.04541.416,1.41591,1.41591,0,0,0,.1626.40625,1.00078,1.00078,0,0,0,.28564.30957.71786.71786,0,0,0,.42285.123.84.84,0,0,0,.44483-.11328.94071.94071,0,0,0,.30224-.2959,1.33467,1.33467,0,0,0,.17237-.40039,1.70372,1.70372,0,0,0-.00635-.88379,1.33386,1.33386,0,0,0-.18213-.39941.92745.92745,0,0,0-.30567-.2832.84811.84811,0,0,0-.43212-.10743.79724.79724,0,0,0-.42237.10743.88345.88345,0,0,0-.28613.27929,1.20754,1.20754,0,0,0-.15918.39356A1.84105,1.84105,0,0,0,118.2876,52.63379Z"/>
        <path class="d" d="M19.72217,62.70215a1.36614,1.36614,0,0,0,.1333.03515.72133.72133,0,0,0,.15283.01661.50591.50591,0,0,0,.34131-.12012,1.12039,1.12039,0,0,0,.22754-.2666,1.14015,1.14015,0,0,0,.12353-.27637,1.0202,1.0202,0,0,0,.03565-.15625.49245.49245,0,0,0-.04248-.15918c-.02832-.07129-.05323-.13574-.07471-.19141l-1.12451-3.09472h.66943l.89063,2.74316h.01318l.90967-2.74316h.61767L21.37305,61.876c-.05616.16015-.1167.32226-.18164.48437a2.21977,2.21977,0,0,1-.23731.44238,1.1263,1.1263,0,0,1-.34765.32129.98252.98252,0,0,1-.50733.124,1.42374,1.42374,0,0,1-.24023-.0166q-.09156-.01613-.17578-.0293Z"/>
        <path class="d" d="M23.94727,57.749h-.689v-.68945h.689Zm-.64991.74024h.61084v3.31543h-.61084Z"/>
        <path class="d" d="M27.56787,61.668c-.06055.02148-.12353.04492-.18848.06836-.06494.02441-.13769.04687-.21777.06836a2.494,2.494,0,0,1-.2793.05566,2.65943,2.65943,0,0,1-.36084.02246,2.04673,2.04673,0,0,1-.76367-.12988,1.42,1.42,0,0,1-.5332-.36426,1.502,1.502,0,0,1-.31543-.56543,2.44378,2.44378,0,0,1-.104-.73437,1.96986,1.96986,0,0,1,.11084-.67578,1.55956,1.55956,0,0,1,.31494-.53028,1.41741,1.41741,0,0,1,.49072-.34765,1.598,1.598,0,0,1,.63721-.123,1.511,1.511,0,0,1,.69531.14258,1.1808,1.1808,0,0,1,.44873.39355,1.6923,1.6923,0,0,1,.24365.59473,3.48887,3.48887,0,0,1,.07471.74023H25.45557a1.11385,1.11385,0,0,0,.0874.44922,1.0692,1.0692,0,0,0,.24072.34766,1.11517,1.11517,0,0,0,.35108.22754,1.08439,1.08439,0,0,0,.41259.081,1.37275,1.37275,0,0,0,.3086-.03613,2.6797,2.6797,0,0,0,.29931-.084,1.62172,1.62172,0,0,0,.24659-.10742,1.27742,1.27742,0,0,0,.166-.10351Zm-.39648-1.83887a1.15657,1.15657,0,0,0-.05518-.3584.91213.91213,0,0,0-.15918-.29492.71543.71543,0,0,0-.26025-.19824.82958.82958,0,0,0-.35108-.07227.81384.81384,0,0,0-.38672.085.8568.8568,0,0,0-.2666.21778.96111.96111,0,0,0-.16211.2959,1.5633,1.5633,0,0,0-.0747.32519Z"/>
        <path class="d" d="M28.71826,56.92969h.61084v4.875h-.61084Z"/>
        <path class="d" d="M32.794,61.33691h-.01319a1.04485,1.04485,0,0,1-.1626.18848,1.2832,1.2832,0,0,1-.24365.17578,1.55639,1.55639,0,0,1-.32178.12988,1.4853,1.4853,0,0,1-.40283.05176,1.25228,1.25228,0,0,1-1.08886-.55957,1.79467,1.79467,0,0,1-.25342-.57519,2.673,2.673,0,0,1-.08155-.65918,2.28937,2.28937,0,0,1,.08789-.63672,1.583,1.583,0,0,1,.26661-.53711,1.32613,1.32613,0,0,1,.44531-.36719,1.59789,1.59789,0,0,1,1.32568.0166,1.15928,1.15928,0,0,1,.40332.37989h.0127V56.92969h.61133v4.875h-.585Zm-1.91749-1.20312a1.577,1.577,0,0,0,.04542.416,1.41561,1.41561,0,0,0,.16259.40625,1.00081,1.00081,0,0,0,.28565.30957.71784.71784,0,0,0,.42285.123.84.84,0,0,0,.44482-.11328.94074.94074,0,0,0,.30225-.2959,1.33465,1.33465,0,0,0,.17236-.40039,1.70344,1.70344,0,0,0-.00635-.88379,1.33384,1.33384,0,0,0-.18212-.39941.92745.92745,0,0,0-.30567-.2832.84817.84817,0,0,0-.43213-.10743.79723.79723,0,0,0-.42236.10743.88345.88345,0,0,0-.28613.27929,1.20754,1.20754,0,0,0-.15918.39356A1.84155,1.84155,0,0,0,30.87646,60.13379Z"/>
        <path class="d" d="M36.31641,57.26758h2.5415v.57226H36.9668V59.166H38.689v.57128H36.9668v1.49512h1.89111v.57227h-2.5415Z"/>
        <path class="d" d="M41.30859,61.80469h-.72754l-1.18994-3.31543H40.061l.897,2.7041h.01269l.91651-2.7041h.61133Z"/>
        <path class="d" d="M43.24561,58.72363a2.41864,2.41864,0,0,1,.50048-.22461,1.95256,1.95256,0,0,1,.5918-.08691,1.31861,1.31861,0,0,1,1.02393.34375,1.49954,1.49954,0,0,1,.30859,1.02734v1.3711c0,.1914.002.335.00635.43261a1.75485,1.75485,0,0,0,.01953.21778h-.57178V61.376h-.01318a1.00975,1.00975,0,0,1-.14307.165,1.15668,1.15668,0,0,1-.21777.16308,1.42863,1.42863,0,0,1-.29248.127,1.26034,1.26034,0,0,1-.37354.05176,1.93734,1.93734,0,0,1-.49072-.05859,1.04005,1.04005,0,0,1-.38672-.18555.83216.83216,0,0,1-.25049-.32129,1.13288,1.13288,0,0,1-.08789-.46777.85831.85831,0,0,1,.15283-.52051,1.18318,1.18318,0,0,1,.38038-.335,1.74168,1.74168,0,0,1,.50048-.18164,2.5495,2.5495,0,0,1,.50684-.05566h.3252c.09521,0,.20361.00488.3247.01367a1.00366,1.00366,0,0,0-.17871-.64746.7936.7936,0,0,0-.64014-.21778,1.53942,1.53942,0,0,0-.5166.0918,1.43482,1.43482,0,0,0-.44531.24707Zm1.81347,1.502c-.06494,0-.12988-.00293-.19482-.00684s-.12988-.00684-.19483-.00684c-.08252,0-.18847.00586-.31884.01661a1.53742,1.53742,0,0,0-.37989.081.89305.89305,0,0,0-.31884.19141.45918.45918,0,0,0-.13282.34863.45165.45165,0,0,0,.05811.23047.58345.58345,0,0,0,.14648.16894.62441.62441,0,0,0,.19825.10352.67862.67862,0,0,0,.21435.03613.89725.89725,0,0,0,.689-.25.87393.87393,0,0,0,.23388-.62109Z"/>
        <path class="d" d="M46.78174,56.92969h.61084v4.875h-.61084Z"/>
        <path class="d" d="M51.44238,61.80469h-.59179v-.52637h-.0127a.977.977,0,0,1-.43555.44531,1.37025,1.37025,0,0,1-.6499.15918,1.13146,1.13146,0,0,1-.94287-.377,1.6446,1.6446,0,0,1-.29883-1.04688V58.48926h.61084v1.71679a1.95766,1.95766,0,0,0,.14942.8711.61628.61628,0,0,0,.55273.31152.95563.95563,0,0,0,.45166-.10058.87231.87231,0,0,0,.31543-.2793,1.25523,1.25523,0,0,0,.18213-.42969,2.46129,2.46129,0,0,0,.0581-.55566V58.48926h.61133Z"/>
        <path class="d" d="M52.6377,58.72363a2.41864,2.41864,0,0,1,.50048-.22461,1.95256,1.95256,0,0,1,.5918-.08691,1.31861,1.31861,0,0,1,1.02393.34375,1.49954,1.49954,0,0,1,.30859,1.02734v1.3711c0,.1914.002.335.00635.43261a1.75485,1.75485,0,0,0,.01953.21778H54.5166V61.376h-.01318a1.00975,1.00975,0,0,1-.14307.165,1.15668,1.15668,0,0,1-.21777.16308,1.42863,1.42863,0,0,1-.29248.127,1.26034,1.26034,0,0,1-.37354.05176,1.93734,1.93734,0,0,1-.49072-.05859,1.04005,1.04005,0,0,1-.38672-.18555.83216.83216,0,0,1-.25049-.32129,1.13288,1.13288,0,0,1-.08789-.46777.85831.85831,0,0,1,.15283-.52051,1.18308,1.18308,0,0,1,.38038-.335,1.74168,1.74168,0,0,1,.50048-.18164,2.5495,2.5495,0,0,1,.50684-.05566h.32519c.09522,0,.20362.00488.32471.01367a1.00366,1.00366,0,0,0-.17871-.64746.7936.7936,0,0,0-.64014-.21778,1.53942,1.53942,0,0,0-.5166.0918,1.43482,1.43482,0,0,0-.44531.24707Zm1.81347,1.502c-.06494,0-.12988-.00293-.19482-.00684s-.12989-.00684-.19483-.00684c-.08252,0-.18847.00586-.31884.01661a1.53742,1.53742,0,0,0-.37989.081.89305.89305,0,0,0-.31884.19141.45918.45918,0,0,0-.13282.34863.45165.45165,0,0,0,.05811.23047.58345.58345,0,0,0,.14648.16894.62447.62447,0,0,0,.19824.10352.67873.67873,0,0,0,.21436.03613.89725.89725,0,0,0,.689-.25.87393.87393,0,0,0,.23388-.62109Z"/>
        <path class="d" d="M57.85791,58.9834H56.98v1.81348a.59327.59327,0,0,0,.15283.44238.49931.49931,0,0,0,.36084.14941.716.716,0,0,0,.24365-.03613.83369.83369,0,0,0,.17237-.08106V61.792q-.104.03224-.23731.06153a1.31454,1.31454,0,0,1-.28271.02929,1.12461,1.12461,0,0,1-.74756-.23047.90608.90608,0,0,1-.273-.73144V58.9834h-.74756v-.49414h.74756v-.7666l.61084-.19532v.96192h.87793Z"/>
        <path class="d" d="M59.35254,57.749h-.689v-.68945h.689Zm-.6499.74024h.61084v3.31543h-.61084Z"/>
        <path class="d" d="M60.21045,60.14746a1.94012,1.94012,0,0,1,.1206-.69531,1.57752,1.57752,0,0,1,.34424-.54981,1.60785,1.60785,0,0,1,.53321-.36035,1.90134,1.90134,0,0,1,1.38134,0,1.56687,1.56687,0,0,1,.53272.36035,1.59975,1.59975,0,0,1,.34131.54981,1.95056,1.95056,0,0,1,.12011.69531,1.82759,1.82759,0,0,1-.12353.67285,1.72423,1.72423,0,0,1-.34424.55176,1.58887,1.58887,0,0,1-.5332.374,1.77978,1.77978,0,0,1-1.36817,0,1.634,1.634,0,0,1-.5332-.374,1.69964,1.69964,0,0,1-.34766-.55176A1.83769,1.83769,0,0,1,60.21045,60.14746Zm.65039,0a1.63225,1.63225,0,0,0,.06152.44141,1.28012,1.28012,0,0,0,.18848.40039.9899.9899,0,0,0,.32178.28906.93892.93892,0,0,0,.46777.11035.92771.92771,0,0,0,.46191-.11035.9899.9899,0,0,0,.32178-.28906,1.29108,1.29108,0,0,0,.18848-.40039,1.63225,1.63225,0,0,0,.06152-.44141,1.51633,1.51633,0,0,0-.07129-.459,1.37158,1.37158,0,0,0-.20166-.39942.96.96,0,0,0-.32519-.27929.966.966,0,0,0-.874,0,1.0035,1.0035,0,0,0-.32519.27929,1.32033,1.32033,0,0,0-.20459.39942A1.50158,1.50158,0,0,0,60.86084,60.14746Z"/>
        <path class="d" d="M64.40283,58.48926h.59131v.52734h.01318a.9656.9656,0,0,1,.43555-.44531,1.35759,1.35759,0,0,1,.6499-.15918,1.12765,1.12765,0,0,1,.94239.377,1.64167,1.64167,0,0,1,.29931,1.0459v1.96973h-.61133V60.08887a1.95194,1.95194,0,0,0-.14941-.8711.61561.61561,0,0,0-.55225-.3125.95765.95765,0,0,0-.45214.10157.86183.86183,0,0,0-.31495.27929,1.24035,1.24035,0,0,0-.18212.43164,2.45438,2.45438,0,0,0-.0586.55274v1.53418h-.61084Z"/>
        <path class="d" d="M72.30078,57.9502c-.08252-.03028-.15723-.05762-.22461-.08106a2.04487,2.04487,0,0,0-.19824-.06152,1.22924,1.22924,0,0,0-.20117-.03614c-.06934-.00683-.14551-.00976-.22754-.00976a1.34262,1.34262,0,0,0-.27637.0293.84353.84353,0,0,0-.25683.09765.533.533,0,0,0-.18848.18457.55194.55194,0,0,0-.07129.293.47921.47921,0,0,0,.14307.36035,1.57131,1.57131,0,0,0,.36035.25684c.14551.07812.30224.15527.47168.23144a2.30056,2.30056,0,0,1,.47119.28223,1.43733,1.43733,0,0,1,.36035.416,1.21265,1.21265,0,0,1,.14307.61718,1.35744,1.35744,0,0,1-.12989.6211,1.137,1.137,0,0,1-.35742.41894,1.53406,1.53406,0,0,1-.52978.23731,2.66181,2.66181,0,0,1-.64014.07519,1.905,1.905,0,0,1-.47119-.05859q-.23072-.05859-.4585-.12988l.06494-.6045c.05664.02149.12159.04493.19532.07129.07324.02637.15136.04981.23388.07129.082.02246.168.04.25684.05567a1.57631,1.57631,0,0,0,.25684.02246,1.14736,1.14736,0,0,0,.29541-.042.949.949,0,0,0,.28955-.12988.764.764,0,0,0,.21777-.22754.635.635,0,0,0,.0874-.34179.58989.58989,0,0,0-.14306-.41211,1.38,1.38,0,0,0-.36036-.28028c-.1455-.08007-.30224-.15625-.47168-.23047a2.69044,2.69044,0,0,1-.47119-.26269,1.31481,1.31481,0,0,1-.36035-.38086,1.066,1.066,0,0,1-.14306-.57813,1.18266,1.18266,0,0,1,.11376-.53027,1.13421,1.13421,0,0,1,.3086-.38672,1.38538,1.38538,0,0,1,.46142-.2373,1.96739,1.96739,0,0,1,.57227-.08106,3.25,3.25,0,0,1,.481.03907,2.59162,2.59162,0,0,1,.4873.124Z"/>
        <path class="d" d="M73.21045,60.14746a1.94012,1.94012,0,0,1,.1206-.69531,1.57752,1.57752,0,0,1,.34424-.54981,1.60785,1.60785,0,0,1,.53321-.36035,1.90134,1.90134,0,0,1,1.38134,0,1.56687,1.56687,0,0,1,.53272.36035,1.59975,1.59975,0,0,1,.34131.54981,1.95056,1.95056,0,0,1,.12011.69531,1.82759,1.82759,0,0,1-.12353.67285,1.72423,1.72423,0,0,1-.34424.55176,1.58887,1.58887,0,0,1-.5332.374,1.77978,1.77978,0,0,1-1.36817,0,1.634,1.634,0,0,1-.5332-.374,1.69964,1.69964,0,0,1-.34766-.55176A1.83769,1.83769,0,0,1,73.21045,60.14746Zm.65039,0a1.63225,1.63225,0,0,0,.06152.44141,1.28012,1.28012,0,0,0,.18848.40039.9899.9899,0,0,0,.32178.28906.93892.93892,0,0,0,.46777.11035.92771.92771,0,0,0,.46191-.11035.9899.9899,0,0,0,.32178-.28906,1.29108,1.29108,0,0,0,.18848-.40039,1.63225,1.63225,0,0,0,.06152-.44141,1.51633,1.51633,0,0,0-.07129-.459,1.37158,1.37158,0,0,0-.20166-.39942.96.96,0,0,0-.32519-.27929.966.966,0,0,0-.874,0,1.0035,1.0035,0,0,0-.32519.27929,1.32033,1.32033,0,0,0-.20459.39942A1.50158,1.50158,0,0,0,73.86084,60.14746Z"/>
        <path class="d" d="M77.79932,58.9834h-.77979v-.49414h.77979v-.30469a3.02295,3.02295,0,0,1,.04541-.5459,1.06064,1.06064,0,0,1,.16894-.42285.78691.78691,0,0,1,.34131-.26953,1.396,1.396,0,0,1,.55566-.09473,1.8762,1.8762,0,0,1,.21778.0127q.10107.01318.19189.02636l-.02588.49415a.62131.62131,0,0,0-.1333-.0293,1.27061,1.27061,0,0,0-.15918-.00977.69944.69944,0,0,0-.312.0586.40927.40927,0,0,0-.17871.166.67359.67359,0,0,0-.08154.25,2.36742,2.36742,0,0,0-.01953.31153v.35742h.87744v.49414h-.87744v2.82129h-.61084Z"/>
        <path class="d" d="M81.69287,58.9834h-.87793v1.81348a.59327.59327,0,0,0,.15283.44238.49931.49931,0,0,0,.36084.14941.71608.71608,0,0,0,.24366-.03613.83384.83384,0,0,0,.17236-.08106V61.792q-.104.03224-.23731.06153a1.31454,1.31454,0,0,1-.28271.02929,1.12461,1.12461,0,0,1-.74756-.23047.90608.90608,0,0,1-.273-.73144V58.9834h-.74756v-.49414h.74756v-.7666l.61084-.19532v.96192h.87793Z"/>
        <path class="d" d="M86.21045,61.80469h-.7085L84.644,59.02246h-.01318l-.83838,2.78223H83.084l-1.06591-3.31543h.66943l.76025,2.74316h.01319l.84521-2.74316h.72119l.832,2.74316h.01318l.80566-2.74316h.59815Z"/>
        <path class="d" d="M88.02979,58.72363a2.41864,2.41864,0,0,1,.50048-.22461,1.95256,1.95256,0,0,1,.5918-.08691,1.31861,1.31861,0,0,1,1.02393.34375,1.49954,1.49954,0,0,1,.30859,1.02734v1.3711c0,.1914.002.335.00635.43261a1.75485,1.75485,0,0,0,.01953.21778h-.57178V61.376h-.01318a1.00975,1.00975,0,0,1-.14307.165,1.15668,1.15668,0,0,1-.21777.16308,1.42863,1.42863,0,0,1-.29248.127,1.26034,1.26034,0,0,1-.37354.05176,1.93734,1.93734,0,0,1-.49072-.05859,1.04005,1.04005,0,0,1-.38672-.18555.83216.83216,0,0,1-.25049-.32129,1.13288,1.13288,0,0,1-.08789-.46777.85831.85831,0,0,1,.15283-.52051,1.18308,1.18308,0,0,1,.38038-.335,1.74168,1.74168,0,0,1,.50048-.18164,2.5495,2.5495,0,0,1,.50684-.05566h.32519c.09522,0,.20362.00488.32471.01367a1.00366,1.00366,0,0,0-.17871-.64746.7936.7936,0,0,0-.64014-.21778,1.53942,1.53942,0,0,0-.5166.0918,1.43482,1.43482,0,0,0-.44531.24707Zm1.81347,1.502c-.06494,0-.12988-.00293-.19482-.00684s-.12989-.00684-.19483-.00684c-.08252,0-.18847.00586-.31884.01661a1.53742,1.53742,0,0,0-.37989.081.89305.89305,0,0,0-.31884.19141.45918.45918,0,0,0-.13282.34863.45165.45165,0,0,0,.05811.23047.58345.58345,0,0,0,.14648.16894.62447.62447,0,0,0,.19824.10352.67873.67873,0,0,0,.21436.03613.89725.89725,0,0,0,.689-.25.874.874,0,0,0,.23388-.62109Z"/>
        <path class="d" d="M91.48828,58.48926h.57178v.51367h.01318a1.07635,1.07635,0,0,1,.36084-.42578.86514.86514,0,0,1,.50391-.165,1.49632,1.49632,0,0,1,.2207.01269c.05615.00879.11719.01954.18213.03223v.5459a.8304.8304,0,0,0-.17236-.04492,1.122,1.122,0,0,0-.16553-.01367.76038.76038,0,0,0-.65674.36425,1.73949,1.73949,0,0,0-.24707.98829v1.50781h-.61084Z"/>
        <path class="d" d="M96.55811,61.668c-.06055.02148-.12354.04492-.18848.06836-.06494.02441-.1377.04687-.21777.06836a2.494,2.494,0,0,1-.2793.05566,2.65954,2.65954,0,0,1-.36084.02246,2.04669,2.04669,0,0,1-.76367-.12988,1.42,1.42,0,0,1-.53321-.36426,1.502,1.502,0,0,1-.31543-.56543,2.4441,2.4441,0,0,1-.104-.73437,1.96986,1.96986,0,0,1,.11084-.67578,1.55956,1.55956,0,0,1,.31494-.53028,1.41741,1.41741,0,0,1,.49072-.34765,1.598,1.598,0,0,1,.63721-.123,1.511,1.511,0,0,1,.69531.14258,1.18073,1.18073,0,0,1,.44873.39355,1.69231,1.69231,0,0,1,.24366.59473,3.48954,3.48954,0,0,1,.0747.74023H94.4458a1.11385,1.11385,0,0,0,.0874.44922,1.06938,1.06938,0,0,0,.24073.34766,1.11524,1.11524,0,0,0,.35107.22754,1.08444,1.08444,0,0,0,.4126.081,1.37266,1.37266,0,0,0,.30859-.03613,2.67928,2.67928,0,0,0,.29932-.084,1.622,1.622,0,0,0,.24658-.10742,1.27764,1.27764,0,0,0,.166-.10351Zm-.39649-1.83887a1.15656,1.15656,0,0,0-.05517-.3584.91232.91232,0,0,0-.15918-.29492.71547.71547,0,0,0-.26026-.19824.8295.8295,0,0,0-.35107-.07227.81379.81379,0,0,0-.38672.085.85657.85657,0,0,0-.2666.21778.96111.96111,0,0,0-.16211.2959,1.564,1.564,0,0,0-.07471.32519Z"/>
      </g>
      <g>
        <path class="d" d="M70.38581,103.06645c5.21474-5.01326,7.2076-7.245,13.17529-10.24806a35.77531,35.77531,0,0,1,14.00876-3.733,161.09514,161.09514,0,0,1,25.58639.65882s-17.45058-2.21251-19.01015-2.27372c-8.44231-.33141-16.17086-.14918-24.82723,6.45171A44.153,44.153,0,0,0,70.38581,103.06645Z"/>
        <path class="e" d="M169.05776,33.54314c.1379.14829.26829.305.40471.45508.15178.167.30068.337.4502.50631,8.76433,9.14339,14.83485,21.76622,9.61435,37.52519-2.06252,6.22605-5.82432,14.60738-21.08973,18.62349-11.79916,3.10421-16.96124,1.58739-29.87138.06418,0,0,17.94744,4.77039,30.18212,1.55158,15.26541-4.01611,20.14647-12.70582,22.209-18.93188C186.622,56.23627,179.00011,42.81745,169.05776,33.54314Z"/>
        <path class="e" d="M142.89928,16.56569c13.99434,6.48645,39.36521,24.49255,30.23592,52.05088-2.06252,6.22606-6.94361,14.91572-22.209,18.93189-26.5391,6.98216-57.23982-18.245-86.02481,16.55367A187.0295,187.0295,0,0,1,75.19705,84.47548C82.56762,72.94,94.06793,71.34929,110.78627,70.0808c28.4261-2.15681,48.23312-9.74689,32.11273-53.51511Z"/>
        <path class="f" d="M141.46928,13.70569c14.25963,7.48553,39.36521,24.49255,30.23592,52.05088-2.06252,6.22606-6.94361,14.91572-22.209,18.93189-26.5391,6.98216-57.23982-18.245-86.02481,16.55367A187.0295,187.0295,0,0,1,73.76705,81.61548C81.13762,70.08,92.63793,68.48929,109.35627,67.2208c28.4261-2.15681,48.23312-9.74689,32.11273-53.51511Z"/>
        <path class="g" d="M149.06811,40.27267l.39169-8.53065,3.54158,6.70269L150.47815,26.606l6.25932,10.37526-2.31234-9.24936,5.3549,6.32851-1.58213-5.76906,6.56369,4.5335c-9.97568-11.98348-15.31536-13.39827-22.52621-18.3272A124.05031,124.05031,0,0,1,149.06811,40.27267Z"/>
      </g>
    </g>
    <g>
      <rect class="h" x="96.2766" y="98.14374" width="11.46815" height="11.46819"/>
      <g>
        <path class="i" d="M96.2766,109.60606a100.50391,100.50391,0,0,0,11.46815-6.95887v-1.109a99.72192,99.72192,0,0,1-11.46815,6.3434Z"/>
        <path class="i" d="M96.2766,106.29634a87.74782,87.74782,0,0,0,11.46815-5.61092v-.5471a50.795,50.795,0,0,1-11.46815,3.91415Z"/>
        <path class="i" d="M107.74475,109.61181v-5.57646c-2.61083,2.19056-5.19612,4.08614-7.36839,5.57646Z"/>
        <path class="i" d="M98.91,109.61181a80.2552,80.2552,0,0,0,7.05881-4.666q.87315-.65073,1.77591-1.342V102.913a97.73992,97.73992,0,0,1-10.39907,6.69882Z"/>
        <path class="i" d="M96.2766,103.24187a45.42984,45.42984,0,0,0,11.46815-3.53964v-.6215A35.11844,35.11844,0,0,1,96.2766,101.923Z"/>
        <path class="i" d="M96.2766,98.14374v3.19482q.37559-.02312.7671-.05332a32.86079,32.86079,0,0,0,10.701-2.47064v-.67086Z"/>
      </g>
      <path class="d" d="M163.35834,109.61076h1.46718V107.541c0-.81044,0-2.30015,1.19259-2.30015a1.48921,1.48921,0,0,1,.65849.12031v-1.4783a1.61313,1.61313,0,0,0-.45-.0439,1.72768,1.72768,0,0,0-1.54336,1.41216h-.02278V103.9707h-1.30211Zm-1.468-1.51084a3.80678,3.80678,0,0,1-1.87357.56948,1.47575,1.47575,0,0,1-1.60927-1.42523h3.89805c0-1.97107-.59063-3.4052-2.68292-3.4052-1.75094,0-2.61616,1.34682-2.61616,2.97887a2.67954,2.67954,0,0,0,2.94585,2.92464,3.86918,3.86918,0,0,0,1.938-.44939Zm-3.48284-1.86212a1.27848,1.27848,0,0,1,1.303-1.32574c.82241,0,1.15153.614,1.19429,1.32574Zm-4.68676,3.373h1.46718v-4.56725h1.28075V103.9707h-1.28075v-.70124c0-.438.15346-.86518.64707-.86518a1.1319,1.1319,0,0,1,.63368.19792l.12089-1.216a5.17461,5.17461,0,0,0-1.0728-.1206,1.72407,1.72407,0,0,0-1.796,1.9169v.78818H152.6365v1.07281h1.08421Zm-5.83716-2.958a1.438,1.438,0,1,1,2.83658,0c0,.94306-.29486,1.95056-1.42357,1.95056-1.11816,0-1.413-1.01891-1.413-1.95056m-1.5345.17623a2.952,2.952,0,0,0,5.90359,0,2.952,2.952,0,1,0-5.90359,0m-6.11008,2.7818H141.707v-2.761c0-.72119.23012-1.8724,1.29265-1.8724.94192,0,.95252.93165.95252,1.62144v3.012h1.46661v-3.55947c0-1.27011-.58032-2.21232-1.91577-2.21232a2.095,2.095,0,0,0-1.77263.89827H141.707v-3.3399H140.239Zm-6.69069,0h1.46751v-2.761c0-.72119.2304-1.8724,1.29184-1.8724.941,0,.95244.93165.95244,1.62144v3.012H138.729v-3.55947c0-1.27011-.58089-2.21232-1.91719-2.21232a2.10434,2.10434,0,0,0-1.85018.89827h-.02339v-.76654h-1.38995Zm-1.51139-5.64006h-1.46876v2.75987c0,.72232-.2296,1.87272-1.292,1.87272-.94237,0-.95305-.93169-.95305-1.62181V103.9707H126.8559v3.55946c0,1.27016.58048,2.21232,1.9165,2.21232a2.35219,2.35219,0,0,0,1.85075-.89883h.02225v.76711h1.39149Zm-10.01121,4.00805c0-.86521.97469-.975,1.63216-.975h.63538a1.87125,1.87125,0,0,1-.307,1.16152,1.2491,1.2491,0,0,1-1.02935.50414c-.5257,0-.9312-.209-.9312-.69065m-.744-2.45271a2.94161,2.94161,0,0,1,1.741-.614c.86477,0,1.27059.30654,1.27059,1.21651h-.81031a4.45039,4.45039,0,0,0-1.89469.32823,1.65656,1.65656,0,0,0-.96345,1.61007,1.79891,1.79891,0,0,0,1.971,1.67561,2.015,2.015,0,0,0,1.741-.97441h.02225a7.06045,7.06045,0,0,0,.06542.84269h1.2924c-.03322-.43888-.05446-.83326-.066-1.25956-.01068-.41606-.02164-.84385-.02164-1.41305V106.215c0-1.66424-.712-2.376-2.43095-2.376a5.05678,5.05678,0,0,0-1.96055.42715Zm-4.41371,4.08472h1.46774V107.541c0-.81044,0-2.30015,1.19317-2.30015a1.48535,1.48535,0,0,1,.65759.12031v-1.4783a1.59959,1.59959,0,0,0-.44928-.0439,1.72849,1.72849,0,0,0-1.54393,1.41216h-.022V103.9707H116.868Zm-5.30034,0h1.53309v-3.35127h2.58489v-1.20514h-2.58489v-1.88357h2.71609v-1.20424h-4.24918Z"/>
      <g>
        <path class="d" d="M154.59811,113.05293h.736v3.67121h-.736Z"/>
        <path class="d" d="M155.7498,113.05293h.77318l.68389,2.93472h.01027l.62583-2.93472h.99958l.64675,2.93472H159.5l.68862-2.93472h.71552l-.95729,3.67121h-.94666l-.66257-2.93477H158.327l-.65229,2.93477h-.95179Z"/>
        <path class="d" d="M161.38257,113.05293h2.16709v.57842H162.119v.90478h1.30972v.57838H162.119v1.03081h1.44089v.57882h-2.17733Z"/>
        <path class="d" d="M165.53218,113.56856a.8559.8559,0,0,0-.18922.02091.554.554,0,0,0-.18925.07861.41605.41605,0,0,0-.14225.15807.49727.49727,0,0,0-.05765.25245.27434.27434,0,0,0,.07347.1944.78447.78447,0,0,0,.18412.14221,2.32533,2.32533,0,0,0,.26313.11578q.13631.05748.28919.12089a2.25844,2.25844,0,0,1,.29432.1367,1.04878,1.04878,0,0,1,.25764.205.98075.98075,0,0,1,.18408.27895,1.15,1.15,0,0,1,.06323.40494.96239.96239,0,0,1-.405.85183,1.74148,1.74148,0,0,1-.97311.25759,2.30859,2.30859,0,0,1-.47845-.04188q-.19971-.03671-.46263-.1l.06834-.66256a1.70015,1.70015,0,0,0,.83086.226.89174.89174,0,0,0,.43658-.11575.39218.39218,0,0,0,.21572-.35756.39847.39847,0,0,0-.0632-.226.62778.62778,0,0,0-.18412-.158,4.86552,4.86552,0,0,0-.55232-.24181,2.065,2.065,0,0,1-.28923-.14735,1.38972,1.38972,0,0,1-.26313-.18925.99223.99223,0,0,1-.18408-.27892.92688.92688,0,0,1-.07351-.38365.99428.99428,0,0,1,.405-.87315,1.571,1.571,0,0,1,.87829-.24731,2.82614,2.82614,0,0,1,.87828.13156l-.06837.60488A1.91941,1.91941,0,0,0,165.53218,113.56856Z"/>
      </g>
    </g>
  </g>
</svg>
